# xmcd CD database file
#
# Track frame offsets:
#	150
#	31140
#	58070
#	85495
#	115165
#	144115
#	169067
#	198330
#	216370
#	246872
#
# Disc length: 3491 seconds
#
# Revision: 0
# Processed by: cddbd v1.5.2PL0 Copyright (c) Steve Scherf et al.
# Submitted via: CDex 1.70beta2
#
DISCID=890da10a
DTITLE=古野光昭 - フルノーツ
DYEAR=2001
DGENRE=Jazz
TTITLE0=YESTERDAY
TTITLE1=MANHATTAN
TTITLE2=MEN-TEI
TTITLE3=TO THE EAST
TTITLE4=Alice IN WONDERLAND
TTITLE5=SOLAR
TTITLE6=BEATRICE
TTITLE7=CAVATINA/from "The Deer Hunter"
TTITLE8=Full NOTES
TTITLE9=When THE Meadow WAS BLOOMIN
EXTD=YEAR: 2001
EXTT0=
EXTT1=
EXTT2=
EXTT3=
EXTT4=
EXTT5=
EXTT6=
EXTT7=
EXTT8=
EXTT9=
PLAYORDER=
